<?xml version="1.0" encoding="UTF-8" standalone="no"?>
<svg
   width="600"
   height="600"
   version="1.1"
   id="svg6"
   sodipodi:docname="Emblem_of_the_Galactic_Republic.svg"
   inkscape:version="1.3 (0e150ed6c4, 2023-07-21)"
   xmlns:inkscape="http://www.inkscape.org/namespaces/inkscape"
   xmlns:sodipodi="http://sodipodi.sourceforge.net/DTD/sodipodi-0.dtd"
   xmlns="http://www.w3.org/2000/svg"
   xmlns:svg="http://www.w3.org/2000/svg">
  <defs
     id="defs6" />
  <sodipodi:namedview
     id="namedview6"
     pagecolor="#ffffff"
     bordercolor="#000000"
     borderopacity="0.25"
     inkscape:showpageshadow="2"
     inkscape:pageopacity="0.0"
     inkscape:pagecheckerboard="0"
     inkscape:deskcolor="#d1d1d1"
     inkscape:zoom="0.91570328"
     inkscape:cx="163.80852"
     inkscape:cy="410.06733"
     inkscape:window-width="1920"
     inkscape:window-height="991"
     inkscape:window-x="-9"
     inkscape:window-y="-9"
     inkscape:window-maximized="1"
     inkscape:current-layer="svg6" />
  <path
     fill="none"
     stroke="#000000"
     stroke-width="38.881"
     d="M 300,300 V 112.032"
     id="path21"
     style="fill:none;fill-opacity:1;stroke:#ddedf9;stroke-opacity:1" />
  <path
     fill="none"
     stroke="#000000"
     stroke-width="38.881"
     d="M 300,300 432.91345,167.08655"
     id="path24"
     style="fill:none;fill-opacity:1;stroke:#ddedf9;stroke-opacity:1" />
  <path
     fill="none"
     stroke="#000000"
     stroke-width="38.881"
     d="M 300,300 H 487.968"
     id="path26"
     style="fill:none;fill-opacity:1;stroke:#ddedf9;stroke-opacity:1" />
  <path
     fill="none"
     stroke="#000000"
     stroke-width="38.881"
     d="M 300,300 432.91345,432.91345"
     id="path28"
     style="fill:none;fill-opacity:1;stroke:#ddedf9;stroke-opacity:1" />
  <path
     fill="none"
     stroke="#000000"
     stroke-width="38.881"
     d="M 300,300 V 487.968"
     id="path3"
     style="fill:none;fill-opacity:1;stroke:#ddedf9;stroke-opacity:1" />
  <path
     fill="none"
     stroke="#000000"
     stroke-width="38.881"
     d="M 300,300 167.08655,432.91345"
     id="path30"
     style="fill:none;fill-opacity:1;stroke:#ddedf9;stroke-opacity:1" />
  <path
     fill="none"
     stroke="#000000"
     stroke-width="38.881"
     d="M 300,300 H 112.032"
     id="path32"
     style="fill:none;fill-opacity:1;stroke:#ddedf9;stroke-opacity:1" />
  <path
     id="path33"
     d="M 521.78758,329.92264 A 223.797,223.797 0 0 1 477.9862,435.66869 l 21.24997,21.24997 A 253.611,253.611 0 0 0 551.83962,329.92264 Z M 477.986,164.331 a 223.797,223.797 0 0 1 43.8015,105.746 h 30.052 A 253.611,253.611 0 0 0 499.236,143.081 Z M 329.92264,78.212423 A 223.797,223.797 0 0 1 435.66869,122.0138 l 21.24997,-21.24997 A 253.611,253.611 0 0 0 329.92264,48.160384 Z M 164.331,122.014 A 223.797,223.797 0 0 1 270.077,78.2125 V 48.1605 A 253.611,253.611 0 0 0 143.081,100.764 Z M 78.212423,270.07736 A 223.797,223.797 0 0 1 122.0138,164.33131 L 100.76383,143.08134 A 253.611,253.611 0 0 0 48.160384,270.07736 Z M 122.014,435.669 A 223.797,223.797 0 0 1 78.2125,329.923 h -30.052 a 253.611,253.611 0 0 0 52.6035,126.996 z m 148.06336,86.11858 A 223.797,223.797 0 0 1 164.33131,477.9862 l -21.24997,21.24997 a 253.611,253.611 0 0 0 126.99602,52.60345 z M 435.669,477.986 a 223.797,223.797 0 0 1 -105.746,43.8015 v 30.052 A 253.611,253.611 0 0 0 456.919,499.236 Z"
     style="fill:#ddedf9;fill-opacity:1" />
  <path
     fill="none"
     stroke="#000000"
     stroke-width="38.881"
     d="M 300,300 167.08655,167.08655"
     id="path34"
     style="fill:none;fill-opacity:1;stroke:#ddedf9;stroke-opacity:1" />
  <path
     id="circle1"
     style="fill:none;stroke:#ddedf9;stroke-width:31.8518;stroke-opacity:1"
     d="M 584.0741,300 A 284.0741,284.0741 0 0 1 300,584.0741 284.0741,284.0741 0 0 1 15.925903,300 284.0741,284.0741 0 0 1 300,15.925903 284.0741,284.0741 0 0 1 584.0741,300 Z" />
  <path
     id="circle2"
     d="M 393.2122,300 A 93.212196,93.212196 0 0 1 300,393.2122 93.212196,93.212196 0 0 1 206.7878,300 93.212196,93.212196 0 0 1 300,206.7878 93.212196,93.212196 0 0 1 393.2122,300 Z"
     style="fill:#ddedf9;fill-opacity:1" />
</svg>
