<?xml version="1.0" encoding="UTF-8" standalone="no"?>
<!-- Generator: Adobe Illustrator 21.0.0, SVG Export Plug-In . SVG Version: 6.00 Build 0)  -->

<svg
   version="1.1"
   id="Layer_1"
   x="0px"
   y="0px"
   viewBox="0 0 512 512"
   style="enable-background:new 0 0 512 512;"
   xml:space="preserve"
   sodipodi:docname="Emblem_of_the_Jedi_Order.svg"
   inkscape:version="1.3 (0e150ed6c4, 2023-07-21)"
   xmlns:inkscape="http://www.inkscape.org/namespaces/inkscape"
   xmlns:sodipodi="http://sodipodi.sourceforge.net/DTD/sodipodi-0.dtd"
   xmlns="http://www.w3.org/2000/svg"
   xmlns:svg="http://www.w3.org/2000/svg"><defs
   id="defs1" /><sodipodi:namedview
   id="namedview1"
   pagecolor="#ffffff"
   bordercolor="#000000"
   borderopacity="0.25"
   inkscape:showpageshadow="2"
   inkscape:pageopacity="0.0"
   inkscape:pagecheckerboard="0"
   inkscape:deskcolor="#d1d1d1"
   inkscape:zoom="1.5175781"
   inkscape:cx="255.67053"
   inkscape:cy="256"
   inkscape:window-width="1920"
   inkscape:window-height="991"
   inkscape:window-x="-9"
   inkscape:window-y="-9"
   inkscape:window-maximized="1"
   inkscape:current-layer="Layer_1" />&#10;<g
   id="g1"
   style="stroke:none;stroke-opacity:1;fill:#ddedf9;fill-opacity:1">&#10;	<path
   d="M255.7,0c0,0-6.4,244.7-9,345.2l-35.9-52.4l23.1,63.4l-71.5,10.4l71.5,10.4l-27.6,54.2l39.4-41.4   c-2.1,78.6-2.5,97.9-2.5,97.9s-176.4-81.9-78.4-262.9c0,0-122.3-135-11.5-217.9c0,0-189.1,114.2-69.1,310.3   c0,0-99.2-96.9-47.3-194.8c0,0-89.9,126.8,19.7,266.3c0,0-29.9-18.4-56.4-88.8c0,0,19.3,209.5,253.7,212.2h4.7   C492.6,509.3,512,299.9,512,299.9c-27,70.3-57,88.8-57,88.8c109.6-139.5,19.6-266.3,19.6-266.3c51.9,98-47.3,194.8-47.3,194.8   c120-196-69.1-310.2-69.1-310.2c110.7,83.1-11.5,217.9-11.5,217.9c98,181-78.4,262.9-78.4,262.9s-0.5-19.3-2.5-97.9   c4.9,5.1,39.4,41.4,39.4,41.4L277.5,377l71.6-10.4l-71.6-10.4l23.1-63.4l-35.9,52.4C262.2,245,255.8,2.1,255.7,0z"
   id="path1"
   style="stroke:none;stroke-opacity:1;fill:#ddedf9;fill-opacity:1" />&#10;</g>&#10;</svg>
